<?xml version="1.0" encoding="UTF-8"?>
<svg id="Layer_1" xmlns="http://www.w3.org/2000/svg" version="1.1" viewBox="0 0 803.76 121.89">
  <!-- Generator: Adobe Illustrator 29.7.1, SVG Export Plug-In . SVG Version: 2.1.1 Build 8)  -->
  <defs>
    <style>
      .st0 {
        fill: #13abc2;
      }
    </style>
  </defs>
  <g>
    <path class="st0" d="M67.87,77.72c-15.11,5.67-30.22,11.42-45.39,17.01,15.47,13.63,40,22.42,67.61,22.42,46.85,0,84.82-25.32,84.82-56.53,0-10.17-4.03-19.73-11.08-27.97-26.53,25.52-53.05,51.04-79.66,76.48-1.46,1.42-3.65,2.09-5.49,3.1-.63-2.05-1.66-4.07-1.82-6.16-.79-10.03-1.34-20.07-2.03-30.91-3.16,1.15-5.06,1.82-6.97,2.55Z"/>
    <path class="st0" d="M5.28,60.62c0,10.17,4.03,19.71,11.1,27.97,26.78-25.74,53.53-51.47,80.37-77.15,1.22-1.15,3.08-1.64,4.64-2.45.61,1.66,1.64,3.28,1.78,4.98.79,10.41,1.4,20.84,2.11,32.06,4.27-1.52,7.27-2.51,10.21-3.63,14.08-5.29,28.13-10.67,42.25-15.9-15.47-13.63-40.02-22.44-67.65-22.44-46.83,0-84.8,25.32-84.8,56.55Z"/>
    <path class="st0" d="M164.95,23.84c-2.41.89-4.82,1.78-7.21,2.67,2.23,1.94,4.25,4.01,6.1,6.14.89-.85,1.78-1.72,2.67-2.57.55-.51,1.26-.95,1.6-1.58.73-1.36,1.26-2.84,1.86-4.25-1.7-.16-3.6-.93-5.02-.4Z"/>
    <path class="st0" d="M10.22,97.1c1.7.14,3.59.85,5.02.32,2.41-.89,4.82-1.78,7.23-2.69-2.23-1.94-4.27-4.01-6.1-6.14-1.05,1.01-2.13,2.05-3.18,3.06-.4.38-.95.71-1.17,1.2-.67,1.38-1.22,2.84-1.8,4.25Z"/>
  </g>
  <g>
    <path class="st0" d="M266.5,30.15l-39.38,61.35h-24.87l-1.87-61.35h20.45l-.25,42.2,25.46-42.2h20.45Z"/>
    <path class="st0" d="M285.38,45.49l-2.3,7.54h19.06l-4.42,14.47h-19.06l-2.65,8.66h21.66l-4.69,15.34h-40.9l18.76-61.35h40.9l-4.69,15.34h-21.66Z"/>
    <path class="st0" d="M323.93,76.94h18.54l-4.45,14.56h-37.78l18.76-61.35h19.24l-14.3,46.79Z"/>
    <path class="st0" d="M359.14,88.03c-3.99-2.71-6.67-6.47-8.04-11.26-1.37-4.79-1.13-10.2.71-16.2,1.84-6.01,4.9-11.41,9.2-16.2,4.29-4.79,9.27-8.53,14.91-11.22,5.64-2.69,11.35-4.03,17.13-4.03s10.65,1.34,14.63,4.03c3.97,2.69,6.63,6.43,7.96,11.22,1.33,4.79,1.09,10.2-.75,16.2-1.84,6.01-4.89,11.41-9.16,16.2-4.27,4.79-9.23,8.55-14.88,11.26-5.65,2.72-11.34,4.07-17.06,4.07s-10.66-1.36-14.65-4.07ZM389.25,70.49c2.83-2.45,4.88-5.76,6.15-9.92,1.29-4.22,1.27-7.55-.06-10.01-1.33-2.45-3.9-3.68-7.71-3.68s-7.22,1.23-10.05,3.68c-2.83,2.46-4.89,5.79-6.18,10.01-1.27,4.16-1.24,7.47.09,9.92,1.33,2.46,3.93,3.68,7.8,3.68s7.14-1.23,9.97-3.68Z"/>
    <path class="st0" d="M472.34,34.05c4.03,2.6,6.64,6.21,7.82,10.83,1.19,4.62.88,9.88-.92,15.77-1.78,5.83-4.69,11.09-8.72,15.77s-8.87,8.36-14.51,11.05c-5.64,2.69-11.67,4.03-18.08,4.03h-25.56l18.76-61.35h25.56c6.41,0,11.63,1.3,15.66,3.9ZM452.84,70.79c3.27-2.37,5.57-5.75,6.91-10.14,1.34-4.39,1.11-7.77-.71-10.14-1.82-2.37-4.89-3.55-9.23-3.55h-4.59l-8.37,27.38h4.59c4.33,0,8.13-1.18,11.4-3.55Z"/>
    <path class="st0" d="M491.8,88.03c-3.99-2.71-6.67-6.47-8.04-11.26-1.37-4.79-1.13-10.2.71-16.2,1.84-6.01,4.9-11.41,9.2-16.2,4.29-4.79,9.27-8.53,14.91-11.22,5.64-2.69,11.35-4.03,17.13-4.03s10.65,1.34,14.63,4.03c3.97,2.69,6.63,6.43,7.96,11.22,1.33,4.79,1.09,10.2-.75,16.2-1.84,6.01-4.89,11.41-9.16,16.2-4.27,4.79-9.23,8.55-14.88,11.26-5.65,2.72-11.34,4.07-17.06,4.07s-10.66-1.36-14.65-4.07ZM521.9,70.49c2.83-2.45,4.88-5.76,6.15-9.92,1.29-4.22,1.27-7.55-.06-10.01-1.33-2.45-3.9-3.68-7.71-3.68s-7.22,1.23-10.05,3.68c-2.83,2.46-4.89,5.79-6.18,10.01-1.27,4.16-1.24,7.47.09,9.92,1.33,2.46,3.93,3.68,7.8,3.68s7.14-1.23,9.97-3.68Z"/>
    <path class="st0" d="M561.33,44.54c3.9-4.74,8.54-8.42,13.91-11.05,5.36-2.63,11.14-3.94,17.32-3.94,5.31,0,9.76,1,13.34,2.99,3.58,1.99,6.13,4.81,7.64,8.45,1.52,3.64,1.96,7.89,1.35,12.74h-20.28c-.31-2.02-1.14-3.6-2.5-4.72-1.36-1.13-3.14-1.69-5.33-1.69-3.24,0-6.16,1.21-8.78,3.64-2.62,2.43-4.55,5.69-5.81,9.79-1.25,4.1-1.32,7.37-.18,9.79,1.13,2.43,3.32,3.64,6.56,3.64,2.19,0,4.32-.56,6.36-1.69,2.05-1.13,3.84-2.7,5.39-4.72h20.28c-2.35,4.85-5.4,9.1-9.14,12.74-3.74,3.64-8.01,6.45-12.81,8.45-4.8,1.99-9.85,2.99-15.17,2.99-6.18,0-11.15-1.31-14.91-3.94-3.76-2.63-6.15-6.31-7.15-11.05-1.01-4.74-.58-10.14,1.27-16.2,1.85-6.06,4.73-11.47,8.63-16.2Z"/>
    <path class="st0" d="M677.2,30.15l-4.66,15.25h-16.29l-14.09,46.1h-19.24l14.09-46.1h-16.12l4.66-15.25h51.64Z"/>
    <path class="st0" d="M678.69,88.03c-3.99-2.71-6.67-6.47-8.04-11.26-1.37-4.79-1.13-10.2.71-16.2,1.84-6.01,4.9-11.41,9.2-16.2,4.29-4.79,9.27-8.53,14.91-11.22s11.35-4.03,17.13-4.03,10.65,1.34,14.63,4.03c3.97,2.69,6.63,6.43,7.96,11.22,1.33,4.79,1.09,10.2-.75,16.2-1.84,6.01-4.89,11.41-9.16,16.2-4.27,4.79-9.23,8.55-14.88,11.26-5.65,2.72-11.34,4.07-17.06,4.07s-10.66-1.36-14.65-4.07ZM708.8,70.49c2.83-2.45,4.88-5.76,6.15-9.92,1.29-4.22,1.27-7.55-.06-10.01-1.33-2.45-3.9-3.68-7.71-3.68s-7.22,1.23-10.05,3.68c-2.83,2.46-4.89,5.79-6.18,10.01-1.27,4.16-1.24,7.47.09,9.92,1.33,2.46,3.93,3.68,7.8,3.68s7.14-1.23,9.97-3.68Z"/>
    <path class="st0" d="M762.76,91.5l-4.79-22.01h-.09l-6.73,22.01h-19.24l18.76-61.35h28.59c4.97,0,8.94.88,11.93,2.64,2.98,1.76,4.89,4.16,5.73,7.19.84,3.03.67,6.46-.5,10.27-1.25,4.1-3.51,7.74-6.76,10.92-3.25,3.18-7.23,5.46-11.93,6.85l6.17,23.48h-21.14ZM761.8,56.67h7.62c1.85,0,3.36-.42,4.54-1.26,1.18-.84,2.04-2.15,2.59-3.94.49-1.62.41-2.89-.27-3.81-.67-.93-1.9-1.39-3.69-1.39h-7.62l-3.18,10.4Z"/>
  </g>
</svg>