<?xml version="1.0" encoding="iso-8859-1"?>
<!-- Generator: Adobe Illustrator 19.0.0, SVG Export Plug-In . SVG Version: 6.00 Build 0)  -->
<svg version="1.1" id="Capa_1" xmlns="http://www.w3.org/2000/svg" xmlns:xlink="http://www.w3.org/1999/xlink" x="0px" y="0px"
	 viewBox="0 0 511.999 511.999" style="enable-background:new 0 0 511.999 511.999;" xml:space="preserve">
<g>
	<g>
		<path d="M408.084,217.721c-5.005,0-9.926,0.363-14.744,1.051L354.252,86.447h-58.78v30h36.36l13.045,44.162l-152.849,26.998
			l-20.613-36.737h21.415v-30h-74.757v30h18.943l31.89,56.837l-18.031,21.248c-14.112-7.18-30.071-11.232-46.96-11.232
			C46.616,217.721,0,264.338,0,321.638s46.616,103.915,103.915,103.915c50.129,0,92.081-35.68,101.795-82.978l71.582,4.158
			l44.366-151.559l31.771-5.612l11.142,37.721c-35.626,16.495-60.403,52.583-60.403,94.354c0,57.299,46.616,103.915,103.915,103.915
			s103.916-46.616,103.916-103.915S465.384,217.721,408.084,217.721z M104.785,306.662l-1.739,29.949l72.249,4.197
			c-8.467,31.491-37.253,54.744-71.38,54.744C63.158,395.552,30,362.394,30,321.638c0-40.757,33.158-73.915,73.915-73.915
			c37.096,0,67.887,27.472,73.121,63.137L104.785,306.662z M255.206,315.399l-47.771-2.775
			c-2.244-25.991-14.09-49.279-31.972-66.279l25.304-29.817l87.928-15.531L255.206,315.399z M408.084,395.552
			c-40.757,0-73.915-33.158-73.915-73.915c0-28.148,15.82-52.665,39.031-65.145l20.498,69.395l28.771-8.499l-20.498-69.393
			c2.018-0.166,4.052-0.273,6.112-0.273c40.757,0,73.916,33.158,73.916,73.915C481.999,362.394,448.842,395.552,408.084,395.552z"/>
	</g>
</g>
<g>
</g>
<g>
</g>
<g>
</g>
<g>
</g>
<g>
</g>
<g>
</g>
<g>
</g>
<g>
</g>
<g>
</g>
<g>
</g>
<g>
</g>
<g>
</g>
<g>
</g>
<g>
</g>
<g>
</g>
</svg>
